<?xml version="1.0"?>
<svg width="50" height="50" xmlns="http://www.w3.org/2000/svg" xmlns:svg="http://www.w3.org/2000/svg">
 <g class="layer">
  <title>Layer 1</title>
  <path d="m47.8435,33.9921c1.0247,-1.307 1.5161,-2.7081 1.4533,-4.151c-0.0627,-1.5893 -0.7737,-2.8336 -1.3592,-3.5969c0.6796,-1.6938 0.941,-4.3601 -1.3279,-6.4303c-1.6625,-1.5161 -4.4856,-2.1957 -8.3961,-2.0075c-2.7499,0.1254 -5.0502,0.6378 -5.1443,0.6587l-0.0104,0c-0.5228,0.0941 -1.077,0.2091 -1.6416,0.3346c-0.0418,-0.6692 0.0732,-2.3317 1.307,-6.0749c1.4638,-4.4542 1.3802,-7.86282 -0.2719,-10.1422c-1.7356,-2.39439 -4.5065,-2.5826 -5.322,-2.5826c-0.7842,0 -1.5057,0.32413 -2.018,0.92012c-1.1606,1.3488 -1.0247,3.8373 -0.8783,4.98745c-1.3802,3.70138 -5.2488,12.77713 -8.5215,15.29693c-0.0628,0.0418 -0.115,0.0941 -0.1673,0.1464c-0.962,1.0142 -1.6102,2.1121 -2.0494,3.074c-0.6169,-0.3346 -1.3174,-0.5228 -2.0702,-0.5228l-6.37812,0c-2.40485,0 -4.34964,1.9553 -4.34964,4.3497l0,16.9908c0,2.4048 1.95525,4.3496 4.34964,4.3496l6.37812,0c0.9305,0 1.7984,-0.2927 2.5094,-0.7946l2.4571,0.2927c0.3764,0.0523 7.0682,0.8992 13.9377,0.7633c1.2442,0.0941 2.4153,0.1464 3.5027,0.1464c1.8716,0 3.5027,-0.1464 4.862,-0.4391c3.1995,-0.6797 5.3848,-2.0389 6.4931,-4.036c0.8469,-1.5266 0.8469,-3.0427 0.711,-4.0046c2.0807,-1.8821 2.4467,-3.9628 2.3735,-5.4266c-0.0418,-0.8469 -0.2301,-1.5684 -0.4287,-2.1016zm-42.79592,12.777c-0.84692,0 -1.52656,-0.6901 -1.52656,-1.5265l0,-17.0013c0,-0.8469 0.69009,-1.5265 1.52656,-1.5265l6.37812,0c0.8469,0 1.5265,0.6901 1.5265,1.5265l0,16.9908c0,0.8469 -0.6901,1.5266 -1.5265,1.5266l-6.37812,0l0,0.0104zm40.11922,-14.0004c-0.4392,0.4601 -0.5228,1.1606 -0.1882,1.7043c0,0.0105 0.4287,0.7424 0.4809,1.7462c0.0732,1.3697 -0.5855,2.5826 -1.9657,3.6177c-0.4914,0.3764 -0.6901,1.0247 -0.4809,1.6102c0,0.0104 0.4496,1.3906 -0.2823,2.6976c-0.7006,1.2547 -2.2585,2.1539 -4.6215,2.6558c-1.8926,0.4078 -4.4647,0.481 -7.6224,0.23c-0.0418,0 -0.0941,0 -0.1464,0c-6.7231,0.1464 -13.5194,-0.7319 -13.5926,-0.7423l-0.0105,0l-1.056,-0.1255c0.0627,-0.2928 0.0941,-0.6064 0.0941,-0.9201l0,-17.0013c0,-0.4496 -0.0732,-0.8887 -0.1987,-1.2965c0.1883,-0.7006 0.711,-2.2585 1.9448,-3.5864c4.6947,-3.7223 9.2849,-16.27977 9.4835,-16.82348c0.0837,-0.21957 0.1046,-0.46006 0.0628,-0.70054c-0.1778,-1.17106 -0.1151,-2.60351 0.1359,-3.03221c0.5541,0.01046 2.0493,0.1673 2.9485,1.41155c1.0665,1.47428 1.0247,4.10916 -0.1254,7.60138c-1.7566,5.3221 -1.903,8.1243 -0.5124,9.358c0.6901,0.6169 1.6102,0.6483 2.2794,0.4078c0.6378,-0.1464 1.2443,-0.2718 1.8193,-0.3659c0.0419,-0.0105 0.0941,-0.0209 0.136,-0.0314c3.2099,-0.7005 8.9606,-1.1292 10.9577,0.6901c1.6939,1.5475 0.4914,3.5968 0.3555,3.8164c-0.3868,0.5855 -0.2718,1.3488 0.251,1.8193c0.0104,0.0105 1.1083,1.0456 1.1606,2.4362c0.0418,0.9306 -0.3974,1.8821 -1.307,2.8231z" fill="#66006d" id="svg_1"/>
 </g>
</svg>